<svg width="24" height="24" viewBox="0 0 24 24" fill="none" xmlns="http://www.w3.org/2000/svg">
<path d="M12.0001 22.1474C17.6046 22.1474 22.148 17.604 22.148 11.9995C22.148 6.39494 17.6046 1.85156 12.0001 1.85156C6.39556 1.85156 1.85217 6.39494 1.85217 11.9995C1.85217 17.604 6.39556 22.1474 12.0001 22.1474Z" fill="#28C28A"/>
<path d="M12 23C5.93509 23 1 18.0658 1 12C1 5.93509 5.93509 1 12 1C18.0658 1 23 5.93509 23 12C23 18.0658 18.0658 23 12 23ZM12 2.7041C6.87404 2.7041 2.7041 6.87404 2.7041 12C2.7041 17.126 6.87404 21.2959 12 21.2959C17.126 21.2959 21.2959 17.1251 21.2959 12C21.2959 6.87404 17.126 2.7041 12 2.7041Z" fill="#28C28A"/>
<path d="M10.6709 16.046C10.4425 16.046 10.2244 15.9548 10.0633 15.7912L6.91927 12.596C6.58953 12.2603 6.59378 11.7218 6.92949 11.3912C7.26521 11.0624 7.80455 11.0657 8.13429 11.4015L10.6462 13.9542L15.8428 8.23097C16.1606 7.8825 16.6992 7.85779 17.0459 8.17305C17.3944 8.48917 17.42 9.02766 17.1038 9.37699L11.3014 15.7673C11.1438 15.9411 10.9222 16.0417 10.6879 16.0468C10.682 16.046 10.6768 16.046 10.6709 16.046Z" fill="white" stroke="white" stroke-width="0.55"/>
</svg>
