<svg width="24" height="24" viewBox="0 0 24 24" fill="none" xmlns="http://www.w3.org/2000/svg">
<path d="M12 4.5C11.586 4.5 11.25 4.164 11.25 3.75V3C11.25 2.586 11.586 2.25 12 2.25C12.414 2.25 12.75 2.586 12.75 3V3.75C12.75 4.164 12.414 4.5 12 4.5Z" fill="white"/>
<path d="M18.5452 11.0456C18.1312 11.0456 17.7952 10.7096 17.7952 10.2956C17.7952 7.24762 15.3202 4.65037 12.2782 4.50637C9.23247 4.36575 6.5171 6.71137 6.23022 9.74175C6.21297 9.92287 6.20435 10.1089 6.20435 10.2956C6.20435 10.7096 5.86835 11.0456 5.45435 11.0456C5.04035 11.0456 4.70435 10.7096 4.70435 10.2956C4.70435 10.0616 4.71522 9.82762 4.73697 9.60037C5.0981 5.78437 8.51697 2.82787 12.3491 3.00825C16.1793 3.18937 19.2952 6.45862 19.2952 10.2956C19.2952 10.71 18.9592 11.0456 18.5452 11.0456Z" fill="white"/>
<path d="M19.9512 16.161C19.7663 16.161 19.5807 16.0927 19.4355 15.9559C18.393 14.9689 17.7949 13.5791 17.7949 12.1432C17.7949 11.7292 18.1309 11.3932 18.5449 11.3932C18.9589 11.3932 19.2949 11.7292 19.2949 12.1432C19.2949 13.1689 19.722 14.1619 20.4668 14.8665C20.7675 15.1511 20.7807 15.6259 20.496 15.927C20.3487 16.0822 20.1499 16.161 19.9512 16.161Z" fill="white"/>
<path d="M4.04815 16.161C3.84902 16.161 3.65065 16.0826 3.50327 15.9266C3.21865 15.6259 3.23177 15.1511 3.53252 14.8665C4.27727 14.1619 4.7044 13.1692 4.7044 12.1432C4.7044 11.7292 5.0404 11.3932 5.4544 11.3932C5.8684 11.3932 6.2044 11.7292 6.2044 12.1432C6.2044 13.5799 5.60627 14.9696 4.56377 15.9559C4.41827 16.0927 4.23302 16.161 4.04815 16.161Z" fill="white"/>
<path d="M12 21.75C9.9675 21.75 8.25 20.0325 8.25 18C8.25 17.586 8.586 17.25 9 17.25C9.414 17.25 9.75 17.586 9.75 18C9.75 19.2195 10.7805 20.25 12 20.25C13.2195 20.25 14.25 19.2195 14.25 18C14.25 17.586 14.586 17.25 15 17.25C15.414 17.25 15.75 17.586 15.75 18C15.75 20.0325 14.0325 21.75 12 21.75Z" fill="white"/>
<path d="M5.07905 18.75C4.16518 18.75 3.35218 18.1912 3.00755 17.3265C2.66255 16.4606 2.86843 15.495 3.53218 14.8665C3.83293 14.5815 4.3073 14.5946 4.59268 14.8954C4.8773 15.1961 4.86455 15.6709 4.5638 15.9559C4.2353 16.2671 4.35605 16.659 4.40105 16.7715C4.44568 16.8832 4.6268 17.25 5.07905 17.25C5.49305 17.25 5.82905 17.586 5.82905 18C5.82905 18.414 5.49343 18.75 5.07905 18.75Z" fill="white"/>
<path d="M18.9203 18.75C18.5063 18.75 18.1703 18.414 18.1703 18C18.1703 17.586 18.5063 17.25 18.9203 17.25C19.3729 17.25 19.5544 16.8817 19.5994 16.7689C19.644 16.6567 19.7644 16.2664 19.4359 15.9555C19.1352 15.6705 19.122 15.1961 19.4067 14.895C19.6917 14.5942 20.166 14.5811 20.4672 14.8657C21.1309 15.4942 21.3372 16.4591 20.9929 17.3235C20.6479 18.1901 19.8342 18.75 18.9203 18.75Z" fill="white"/>
<path d="M5.45398 12.8929C5.03998 12.8929 4.70398 12.5569 4.70398 12.1429V10.2956C4.70398 9.88162 5.03998 9.54562 5.45398 9.54562C5.86798 9.54562 6.20398 9.88162 6.20398 10.2956V12.1429C6.20398 12.5569 5.86835 12.8929 5.45398 12.8929Z" fill="white"/>
<path d="M18.5453 12.8929C18.1313 12.8929 17.7953 12.5569 17.7953 12.1429V10.2956C17.7953 9.88162 18.1313 9.54562 18.5453 9.54562C18.9593 9.54562 19.2953 9.88162 19.2953 10.2956V12.1429C19.2953 12.5569 18.9593 12.8929 18.5453 12.8929Z" fill="white"/>
<path d="M18.9202 18.75H5.07898C4.66498 18.75 4.32898 18.414 4.32898 18C4.32898 17.586 4.66498 17.25 5.07898 17.25H18.9199C19.3339 17.25 19.6699 17.586 19.6699 18C19.6699 18.414 19.3342 18.75 18.9202 18.75Z" fill="white"/>
</svg>
